<svg width="800" height="160" viewBox="0 0 800 160" xmlns="http://www.w3.org/2000/svg">
  <rect width="800" height="160" fill="#1a1464"/>
 
  <path d="M0,66 C100,34 200,80 320,48 C430,16 530,60 640,30 C720,8 770,40 800,22 L800,160 L0,160 Z" fill="#7B1FA2"/>
  <path d="M0,140 C100,100 200,155 300,125 C400,95 500,145 600,115 C680,85 740,130 800,105 L800,160 L0,160 Z" fill="#E6A268"/>
  <path d="M0,125 C90,90 190,140 290,110 C390,80 490,130 590,100 C670,70 740,115 800,90 L800,160 L0,160 Z" fill="#FFB300"/>
  <path d="M0,108 C80,73 180,123 280,90 C380,58 480,108 580,76 C660,48 730,90 800,66 L800,160 L0,160 Z" fill="#F57C00"/>
  <path d="M0,88 C90,53 190,103 300,68 C410,36 510,84 610,52 C690,26 750,66 800,44 L800,160 L0,160 Z" fill="#E65100"/>
  <path d="M0,42 C110,12 220,55 350,22 C460,-8 560,32 670,6 C730,-8 780,16 800,4 L800,0 L0,0 Z" fill="#1a1464"/>
 
  <text x="400" y="88" text-anchor="middle" font-family="Georgia, serif" font-size="42" font-weight="700" fill="white" letter-spacing="1">Sunny</text>
  <text x="400" y="118" text-anchor="middle" font-family="Georgia, serif" font-size="14" fill="rgba(255,255,255,0.88)" letter-spacing="0.5">· École 42 Lyon · Fullstack en construction</text>
</svg>
